<svg width="441" height="245" viewBox="0 0 441 245" fill="none" xmlns="http://www.w3.org/2000/svg">
<g clip-path="url(#clip0_406_1841)">
<mask id="mask0_406_1841" style="mask-type:alpha" maskUnits="userSpaceOnUse" x="0" y="26" width="441" height="191">
<rect y="26.1105" width="440.851" height="189.964" fill="url(#paint0_linear_406_1841)"/>
</mask>
<g mask="url(#mask0_406_1841)">
<path d="M385.597 51.0596L360.679 42.8215L258.06 43.1394L240.296 36.8237L225.266 43.0032L161.039 42.8291L135.589 31.2799H98.5854L92.8616 42.8253H60.6103L0 138.352L67.4697 213.724H373.526L440.996 138.352L385.593 51.0558L385.597 51.0596ZM371.97 210.307H69.0258L4.30527 138.004L62.5259 46.2424H95.0219L100.742 34.697H134.836L160.278 46.2424L225.95 46.4202L240.384 40.4829L257.46 46.5565L360.121 46.2386L383.326 53.909L436.691 137.996L371.97 210.3V210.307Z" fill="url(#paint1_linear_406_1841)"/>
</g>
<path d="M436.695 138.003L371.97 210.303H69.0257L4.30518 138.003L62.5258 46.2419H95.0218L100.742 34.6965H134.836L160.281 46.2419L225.95 46.4236L240.384 40.4863L257.46 46.5598L360.121 46.2419L383.326 53.9161L436.695 138.003Z" fill="url(#paint2_linear_406_1841)"/>
<path d="M436.686 138.003L383.329 53.9161L360.116 46.2457L257.463 46.556L240.387 40.4825L225.946 46.4198L160.277 46.2457L134.835 34.7003H100.745L95.0247 46.2457H62.5325L4.30811 138.003H43.2429L72.5884 159.592H120.115L127.23 138.003H158.059L165.144 107.458H172.176L181.673 103.363L179.681 124.093L205.941 138.003H436.686Z" fill="#4A357D"/>
<path d="M24.9253 126.723H58.0943L63.7951 115.9H49.0861L59.4937 97.8425L76.5465 91.6971L81.9339 81.4799L65.703 87.0691L74.3404 72.0801L69.2513 64.4702H78.7298H90.8962L94.5553 57.5264H68.8345L24.9253 126.723Z" fill="white"/>
<path d="M107.853 45.9768L88.5981 84.8626L111.944 98.5763L121.106 103.261L107.242 110.712L97.4572 135.948H81.754L98.5468 97.5281L86.0019 90.1036L62.2847 137.992L76.3514 148.311H111.845L129.429 94.9397L105.399 81.8504L118.334 52.2585H129.896L137.765 55.5317L126.634 60.6744L119.037 80.28L131.987 87.1671L143.825 51.2367L132.331 45.9768H107.853Z" fill="white"/>
<path d="M151.139 57.5256L131.058 126.722H148.979L156.068 96.1768H169.802L186.862 88.8242L190.024 63.4175L176.856 57.5256H151.135H151.139ZM174.168 72.28L171.415 87.3597H158.117L163.428 64.4657H175.594L184.572 68.0796L174.168 72.2762V72.28Z" fill="white"/>
<path d="M197.526 57.5256L191.745 117.69L208.798 126.722H241.967L237.558 63.4175L223.251 57.5256H197.53H197.526ZM223.492 78.8152L223.92 115.896H209.211L211.165 64.4657H223.331L232.68 68.0796L223.496 78.8152H223.492Z" fill="white"/>
<path d="M247.366 63.444L254.305 126.722H272.226L267.099 96.1768H280.833L287.471 126.722H305.395L297.354 97.5277L286.805 93.1078L294.957 88.8242L286.335 57.5256H260.614L247.366 63.444V63.444ZM278.921 87.3597H265.623L263.107 72.3594L252.73 68.0834L261.78 64.4695H273.947L278.921 87.3635V87.3597Z" fill="white"/>
<path d="M292.984 64.4695H304.963L326.34 126.722H344.265L322.287 71.9886L309.735 64.3863H331.024L327.942 57.5256H290.938L292.984 64.4695Z" fill="white"/>
<path d="M390.973 87.1668L375.851 63.3381L358.263 57.5256H332.542L345.358 84.8622L381.923 98.5759L391.91 115.9H377.197L367.519 97.5277L347.813 90.1032L360.744 117.69L382.901 126.722H416.07L395.901 94.9394L359.257 81.85L354.122 72.1021L340.629 64.4695H362.266L371.377 80.2796L390.973 87.1668Z" fill="white"/>
<path d="M240.987 49.2345C239.11 51.0471 236.984 52.7273 234.647 54.2523C237.202 55.7924 239.629 57.5482 241.897 59.4895C243.82 57.5482 245.938 55.7924 248.217 54.2523C245.609 52.7273 243.185 51.0471 240.987 49.2345Z" fill="#E2D45C"/>
<path d="M45.1373 118.17L55.9005 99.4919C51.9087 99.9423 47.9514 100.404 44.0285 100.885L29.0747 124.452H56.7034L60.0107 118.17H45.1373V118.17Z" fill="url(#paint3_linear_406_1841)"/>
<path d="M122.307 93.6526C118.033 93.9288 113.785 94.224 109.564 94.5381L113.058 96.5891L124.54 102.458L126.659 96.0215L122.307 93.6526V93.6526ZM109.078 112.305L99.0375 138.218H78.2644L95.6461 98.4546L91.4632 95.9798C89.4291 96.1539 87.3988 96.3318 85.38 96.5172L65.188 137.291L77.1097 146.04H110.179L123.921 104.331L109.078 112.305V112.305Z" fill="url(#paint4_linear_406_1841)"/>
<path d="M175.933 91.0604L169.33 93.9061H154.246L147.157 124.452H134.107L143.402 92.4189C154.101 91.8627 164.948 91.4086 175.933 91.0604Z" fill="url(#paint5_linear_406_1841)"/>
<path d="M239.509 124.452H209.376L194.173 116.403L196.662 90.5234C200.39 90.4477 204.13 90.3872 207.884 90.338L206.829 118.17H226.241L225.92 90.1904C227.637 90.1866 229.357 90.1829 231.082 90.1829C233.101 90.1829 235.115 90.1866 237.123 90.1942L239.509 124.452V124.452Z" fill="url(#paint6_linear_406_1841)"/>
<path d="M302.395 124.452H289.326L282.688 93.9062H264.393L269.52 124.452H256.363L252.62 90.3151C263.815 90.4513 274.892 90.6973 285.835 91.0454L281.472 93.3386L295.436 99.1889L302.395 124.452V124.452Z" fill="url(#paint7_linear_406_1841)"/>
<path d="M328.231 92.9372C324.491 92.7216 320.733 92.5172 316.955 92.328L327.986 124.452H340.886L328.231 92.9372Z" fill="url(#paint8_linear_406_1841)"/>
<path d="M395.337 98.3151C391.502 97.9178 387.641 97.5318 383.748 97.161L395.861 118.17H375.807L365.889 99.3444L353.26 94.584C352.977 94.5613 352.697 94.5424 352.415 94.5234L362.451 115.93L383.354 124.452H411.924L395.337 98.3151V98.3151Z" fill="url(#paint9_linear_406_1841)"/>
<path fill-rule="evenodd" clip-rule="evenodd" d="M182.757 177.643V172.973L169.723 177.771H169.696V182.562H169.723L182.757 187.36V182.683L176.077 180.155L182.757 177.643V177.643Z" fill="#996DFF"/>
<path fill-rule="evenodd" clip-rule="evenodd" d="M258.257 187.118V182.448L264.933 179.936L258.257 177.423V172.753L271.272 177.548H271.303V182.342H271.272L258.257 187.114V187.118ZM252.667 166.158L245.012 190.475H249.558L257.213 166.158H252.667Z" fill="#996DFF"/>
<path fill-rule="evenodd" clip-rule="evenodd" d="M201.909 172.091C203.202 173.499 203.882 175.353 203.802 177.253V187.61H199.256V178.203C199.309 177.154 198.969 176.125 198.308 175.308C197.677 174.581 196.744 174.18 195.777 174.222C192.932 174.222 191.506 176.174 191.506 180.083V187.614H186.959V170.608H191.506V172.144C192.947 170.755 194.905 170.017 196.916 170.101C198.789 170.021 200.609 170.748 201.906 172.091H201.909Z" fill="white"/>
<path fill-rule="evenodd" clip-rule="evenodd" d="M209.587 163.535V187.852H214.133V163.535H209.587Z" fill="white"/>
<path fill-rule="evenodd" clip-rule="evenodd" d="M239.819 186.963H236.026L232.309 176.946L228.559 186.963H224.773L218.403 169.927H223.259L226.838 180.114L230.528 169.927H234.072L237.762 180.148L241.341 169.927H246.196L239.819 186.963V186.963Z" fill="white"/>
<path d="M18.533 39.7034C23.6795 27.4012 34.0718 17.7062 49.4117 10.891C64.1093 4.35959 82.7336 0.726817 104.761 0.0986509C149.917 -1.19174 204.428 10.2439 258.244 32.3092C262.114 33.8948 265.949 35.5219 269.742 37.1907L264.377 37.2059C262.075 36.2182 259.755 35.2457 257.415 34.2883C147.156 -10.9094 40.8891 -8.11292 20.5327 40.5246C14.6369 54.6091 16.583 71.0133 25.0024 88.3144C45.6456 130.765 105.243 178.6 183.579 210.712C191.157 213.819 198.743 216.71 206.317 219.385C252.272 235.627 297.661 243.857 336.171 242.756C357.916 242.136 376.257 238.567 390.695 232.153C405.518 225.569 415.532 216.256 420.461 204.476C424.907 193.846 424.892 181.896 420.996 169.234L422.659 167.376C427.224 181.332 427.163 194.073 422.464 205.297C417.314 217.599 406.925 227.294 391.582 234.109C376.884 240.641 358.263 244.274 336.236 244.902C333.934 244.966 331.61 245 329.262 245C290.442 245 245.351 236.043 199.985 219.385C194.239 217.278 188.492 215.045 182.749 212.691C128.933 190.63 82.2174 160.572 51.2088 128.055C39.0156 115.269 29.778 102.652 23.6565 90.4335C22.1807 87.4932 20.8883 84.5794 19.7795 81.6922C13.8034 66.1356 13.3828 52.0094 18.533 39.7034V39.7034Z" fill="url(#paint10_linear_406_1841)"/>
<path d="M18.533 39.7034C23.6795 27.4012 34.0718 17.7062 49.4117 10.891C64.1093 4.35959 82.7336 0.726817 104.761 0.0986509C149.917 -1.19174 204.428 10.2439 258.244 32.3092C262.114 33.8948 265.949 35.5219 269.742 37.1907L264.377 37.2059C262.075 36.2182 259.755 35.2457 257.415 34.2883C147.156 -10.9094 40.8891 -8.11292 20.5327 40.5246C14.6369 54.6091 16.583 71.0133 25.0024 88.3144C45.6456 130.765 105.243 178.6 183.579 210.712C191.157 213.819 198.743 216.71 206.317 219.385C252.272 235.627 297.661 243.857 336.171 242.756C357.916 242.136 376.257 238.567 390.695 232.153C405.518 225.569 415.532 216.256 420.461 204.476C424.907 193.846 424.892 181.896 420.996 169.234L422.659 167.376C427.224 181.332 427.163 194.073 422.464 205.297C417.314 217.599 406.925 227.294 391.582 234.109C376.884 240.641 358.263 244.274 336.236 244.902C333.934 244.966 331.61 245 329.262 245C290.442 245 245.351 236.043 199.985 219.385C194.239 217.278 188.492 215.045 182.749 212.691C128.933 190.63 82.2174 160.572 51.2088 128.055C39.0156 115.269 29.778 102.652 23.6565 90.4335C22.1807 87.4932 20.8883 84.5794 19.7795 81.6922C13.8034 66.1356 13.3828 52.0094 18.533 39.7034V39.7034Z" fill="url(#paint11_radial_406_1841)"/>
<path d="M18.533 39.7034C23.6795 27.4012 34.0718 17.7062 49.4117 10.891C64.1093 4.35959 82.7336 0.726817 104.761 0.0986509C149.917 -1.19174 204.428 10.2439 258.244 32.3092C262.114 33.8948 265.949 35.5219 269.742 37.1907L264.377 37.2059C262.075 36.2182 259.755 35.2457 257.415 34.2883C147.156 -10.9094 40.8891 -8.11292 20.5327 40.5246C14.6369 54.6091 16.583 71.0133 25.0024 88.3144C45.6456 130.765 105.243 178.6 183.579 210.712C191.157 213.819 198.743 216.71 206.317 219.385C252.272 235.627 297.661 243.857 336.171 242.756C357.916 242.136 376.257 238.567 390.695 232.153C405.518 225.569 415.532 216.256 420.461 204.476C424.907 193.846 424.892 181.896 420.996 169.234L422.659 167.376C427.224 181.332 427.163 194.073 422.464 205.297C417.314 217.599 406.925 227.294 391.582 234.109C376.884 240.641 358.263 244.274 336.236 244.902C333.934 244.966 331.61 245 329.262 245C290.442 245 245.351 236.043 199.985 219.385C194.239 217.278 188.492 215.045 182.749 212.691C128.933 190.63 82.2174 160.572 51.2088 128.055C39.0156 115.269 29.778 102.652 23.6565 90.4335C22.1807 87.4932 20.8883 84.5794 19.7795 81.6922C13.8034 66.1356 13.3828 52.0094 18.533 39.7034V39.7034Z" fill="url(#paint12_radial_406_1841)"/>
<path d="M18.533 39.7034C23.6795 27.4012 34.0718 17.7062 49.4117 10.891C64.1093 4.35959 82.7336 0.726817 104.761 0.0986509C149.917 -1.19174 204.428 10.2439 258.244 32.3092C262.114 33.8948 265.949 35.5219 269.742 37.1907L264.377 37.2059C262.075 36.2182 259.755 35.2457 257.415 34.2883C147.156 -10.9094 40.8891 -8.11292 20.5327 40.5246C14.6369 54.6091 16.583 71.0133 25.0024 88.3144C45.6456 130.765 105.243 178.6 183.579 210.712C191.157 213.819 198.743 216.71 206.317 219.385C252.272 235.627 297.661 243.857 336.171 242.756C357.916 242.136 376.257 238.567 390.695 232.153C405.518 225.569 415.532 216.256 420.461 204.476C424.907 193.846 424.892 181.896 420.996 169.234L422.659 167.376C427.224 181.332 427.163 194.073 422.464 205.297C417.314 217.599 406.925 227.294 391.582 234.109C376.884 240.641 358.263 244.274 336.236 244.902C333.934 244.966 331.61 245 329.262 245C290.442 245 245.351 236.043 199.985 219.385C194.239 217.278 188.492 215.045 182.749 212.691C128.933 190.63 82.2174 160.572 51.2088 128.055C39.0156 115.269 29.778 102.652 23.6565 90.4335C22.1807 87.4932 20.8883 84.5794 19.7795 81.6922C13.8034 66.1356 13.3828 52.0094 18.533 39.7034V39.7034Z" fill="url(#paint13_radial_406_1841)"/>
<path d="M422.464 39.7034C417.317 27.4012 406.925 17.7062 391.585 10.891C376.888 4.35959 358.263 0.726817 336.236 0.0986509C291.08 -1.19174 236.568 10.2439 182.753 32.3092C178.883 33.8948 175.048 35.5219 171.255 37.1907L176.62 37.2059C178.921 36.2182 181.242 35.2457 183.582 34.2883C293.841 -10.9094 400.108 -8.11292 420.464 40.5246C426.36 54.6091 424.414 71.0133 415.994 88.3144C395.351 130.765 335.754 178.6 257.418 210.712C249.84 213.819 242.254 216.71 234.68 219.385C188.725 235.627 143.336 243.857 104.826 242.756C83.0813 242.136 64.7399 238.567 50.3023 232.153C35.4786 225.569 25.4648 216.256 20.5363 204.476C16.0895 193.846 16.1048 181.896 20.001 169.234L18.3378 167.376C13.7725 181.332 13.8337 194.073 18.5328 205.297C23.683 217.599 34.0715 227.294 49.4153 234.109C64.1128 240.641 82.7333 244.274 104.761 244.902C107.062 244.966 109.387 245 111.735 245C150.555 245 195.645 236.043 241.011 219.385C246.758 217.278 252.505 215.045 258.248 212.691C312.064 190.63 358.779 160.572 389.788 128.055C401.981 115.269 411.219 102.652 417.34 90.4335C418.816 87.4932 420.109 84.5794 421.217 81.6922C427.193 66.1356 427.614 52.0094 422.464 39.7034V39.7034Z" fill="url(#paint14_linear_406_1841)"/>
<path d="M422.464 39.7034C417.317 27.4012 406.925 17.7062 391.585 10.891C376.888 4.35959 358.263 0.726817 336.236 0.0986509C291.08 -1.19174 236.568 10.2439 182.753 32.3092C178.883 33.8948 175.048 35.5219 171.255 37.1907L176.62 37.2059C178.921 36.2182 181.242 35.2457 183.582 34.2883C293.841 -10.9094 400.108 -8.11292 420.464 40.5246C426.36 54.6091 424.414 71.0133 415.994 88.3144C395.351 130.765 335.754 178.6 257.418 210.712C249.84 213.819 242.254 216.71 234.68 219.385C188.725 235.627 143.336 243.857 104.826 242.756C83.0813 242.136 64.7399 238.567 50.3023 232.153C35.4786 225.569 25.4648 216.256 20.5363 204.476C16.0895 193.846 16.1048 181.896 20.001 169.234L18.3378 167.376C13.7725 181.332 13.8337 194.073 18.5328 205.297C23.683 217.599 34.0715 227.294 49.4153 234.109C64.1128 240.641 82.7333 244.274 104.761 244.902C107.062 244.966 109.387 245 111.735 245C150.555 245 195.645 236.043 241.011 219.385C246.758 217.278 252.505 215.045 258.248 212.691C312.064 190.63 358.779 160.572 389.788 128.055C401.981 115.269 411.219 102.652 417.34 90.4335C418.816 87.4932 420.109 84.5794 421.217 81.6922C427.193 66.1356 427.614 52.0094 422.464 39.7034V39.7034Z" fill="url(#paint15_radial_406_1841)"/>
<path d="M422.464 39.7034C417.317 27.4012 406.925 17.7062 391.585 10.891C376.888 4.35959 358.263 0.726817 336.236 0.0986509C291.08 -1.19174 236.568 10.2439 182.753 32.3092C178.883 33.8948 175.048 35.5219 171.255 37.1907L176.62 37.2059C178.921 36.2182 181.242 35.2457 183.582 34.2883C293.841 -10.9094 400.108 -8.11292 420.464 40.5246C426.36 54.6091 424.414 71.0133 415.994 88.3144C395.351 130.765 335.754 178.6 257.418 210.712C249.84 213.819 242.254 216.71 234.68 219.385C188.725 235.627 143.336 243.857 104.826 242.756C83.0813 242.136 64.7399 238.567 50.3023 232.153C35.4786 225.569 25.4648 216.256 20.5363 204.476C16.0895 193.846 16.1048 181.896 20.001 169.234L18.3378 167.376C13.7725 181.332 13.8337 194.073 18.5328 205.297C23.683 217.599 34.0715 227.294 49.4153 234.109C64.1128 240.641 82.7333 244.274 104.761 244.902C107.062 244.966 109.387 245 111.735 245C150.555 245 195.645 236.043 241.011 219.385C246.758 217.278 252.505 215.045 258.248 212.691C312.064 190.63 358.779 160.572 389.788 128.055C401.981 115.269 411.219 102.652 417.34 90.4335C418.816 87.4932 420.109 84.5794 421.217 81.6922C427.193 66.1356 427.614 52.0094 422.464 39.7034V39.7034Z" fill="url(#paint16_radial_406_1841)"/>
</g>
<defs>
<linearGradient id="paint0_linear_406_1841" x1="220.425" y1="114.47" x2="220.425" y2="207.56" gradientUnits="userSpaceOnUse">
<stop stop-color="#D9D9D9"/>
<stop offset="1" stop-color="#D9D9D9" stop-opacity="0"/>
</linearGradient>
<linearGradient id="paint1_linear_406_1841" x1="0" y1="122.5" x2="441" y2="122.5" gradientUnits="userSpaceOnUse">
<stop stop-color="#996DFF"/>
<stop offset="0.5" stop-color="#35E8B3"/>
<stop offset="1" stop-color="#E2D45C"/>
</linearGradient>
<linearGradient id="paint2_linear_406_1841" x1="220.498" y1="140.739" x2="220.498" y2="208.506" gradientUnits="userSpaceOnUse">
<stop stop-color="#28203E"/>
<stop offset="1" stop-color="#121214" stop-opacity="0"/>
</linearGradient>
<linearGradient id="paint3_linear_406_1841" x1="44.5446" y1="93.4298" x2="44.5446" y2="120.134" gradientUnits="userSpaceOnUse">
<stop stop-color="#A9A9AD"/>
<stop offset="1" stop-color="#A9A9AD" stop-opacity="0"/>
</linearGradient>
<linearGradient id="paint4_linear_406_1841" x1="95.9252" y1="93.4293" x2="95.9252" y2="120.134" gradientUnits="userSpaceOnUse">
<stop stop-color="#A9A9AD"/>
<stop offset="1" stop-color="#A9A9AD" stop-opacity="0"/>
</linearGradient>
<linearGradient id="paint5_linear_406_1841" x1="155.022" y1="93.4293" x2="155.022" y2="120.134" gradientUnits="userSpaceOnUse">
<stop stop-color="#A9A9AD"/>
<stop offset="1" stop-color="#A9A9AD" stop-opacity="0"/>
</linearGradient>
<linearGradient id="paint6_linear_406_1841" x1="216.843" y1="93.4296" x2="216.843" y2="120.134" gradientUnits="userSpaceOnUse">
<stop stop-color="#A9A9AD"/>
<stop offset="1" stop-color="#A9A9AD" stop-opacity="0"/>
</linearGradient>
<linearGradient id="paint7_linear_406_1841" x1="277.507" y1="93.4294" x2="277.507" y2="120.134" gradientUnits="userSpaceOnUse">
<stop stop-color="#A9A9AD"/>
<stop offset="1" stop-color="#A9A9AD" stop-opacity="0"/>
</linearGradient>
<linearGradient id="paint8_linear_406_1841" x1="328.923" y1="93.4292" x2="328.923" y2="120.134" gradientUnits="userSpaceOnUse">
<stop stop-color="#A9A9AD"/>
<stop offset="1" stop-color="#A9A9AD" stop-opacity="0"/>
</linearGradient>
<linearGradient id="paint9_linear_406_1841" x1="382.169" y1="93.4298" x2="382.169" y2="120.134" gradientUnits="userSpaceOnUse">
<stop stop-color="#A9A9AD"/>
<stop offset="1" stop-color="#A9A9AD" stop-opacity="0"/>
</linearGradient>
<linearGradient id="paint10_linear_406_1841" x1="400.131" y1="175.395" x2="102.279" y2="176.94" gradientUnits="userSpaceOnUse">
<stop stop-color="#996DFF"/>
<stop offset="0.5" stop-color="#35E8B3"/>
<stop offset="1" stop-color="#E2D45C"/>
</linearGradient>
<radialGradient id="paint11_radial_406_1841" cx="0" cy="0" r="1" gradientUnits="userSpaceOnUse" gradientTransform="translate(217.778 223.888) rotate(15.6067) scale(200.071 329.311)">
<stop stop-color="#171226"/>
<stop offset="1" stop-color="#171226" stop-opacity="0"/>
</radialGradient>
<radialGradient id="paint12_radial_406_1841" cx="0" cy="0" r="1" gradientUnits="userSpaceOnUse" gradientTransform="translate(269.117 38.2815) rotate(-157.249) scale(44.9936 74.1774)">
<stop stop-color="#261945"/>
<stop offset="1" stop-color="#261945" stop-opacity="0"/>
</radialGradient>
<radialGradient id="paint13_radial_406_1841" cx="0" cy="0" r="1" gradientUnits="userSpaceOnUse" gradientTransform="translate(423.132 164.262) rotate(76.5962) scale(50.5629 84.7441)">
<stop stop-color="#191326"/>
<stop offset="1" stop-color="#191326" stop-opacity="0"/>
</radialGradient>
<linearGradient id="paint14_linear_406_1841" x1="231.843" y1="27.1451" x2="297.235" y2="194.653" gradientUnits="userSpaceOnUse">
<stop stop-color="#996DFF"/>
<stop offset="0.5" stop-color="#35E8B3"/>
<stop offset="1" stop-color="#E2D45C"/>
</linearGradient>
<radialGradient id="paint15_radial_406_1841" cx="0" cy="0" r="1" gradientUnits="userSpaceOnUse" gradientTransform="translate(167.143 41.9936) rotate(-19.1676) scale(101.754 167.608)">
<stop stop-color="#171225"/>
<stop offset="1" stop-color="#171225" stop-opacity="0"/>
</radialGradient>
<radialGradient id="paint16_radial_406_1841" cx="0" cy="0" r="1" gradientUnits="userSpaceOnUse" gradientTransform="translate(18.5194 166.582) rotate(67.2599) scale(67.9217 113.614)">
<stop stop-color="#191327"/>
<stop offset="1" stop-color="#191327" stop-opacity="0"/>
</radialGradient>
<clipPath id="clip0_406_1841">
<rect width="441" height="245" fill="white"/>
</clipPath>
</defs>
</svg>
